<?xml version="1.0" encoding="utf-8"?>
<!-- Generator: Adobe Illustrator 27.5.0, SVG Export Plug-In . SVG Version: 6.00 Build 0)  -->
<svg version="1.1" xmlns="http://www.w3.org/2000/svg" xmlns:xlink="http://www.w3.org/1999/xlink" x="0px" y="0px"
	 viewBox="0 0 500 500" style="enable-background:new 0 0 500 500;" xml:space="preserve">
<g id="Background">
	<g>
		<rect style="fill:#FFFFFF;" width="500" height="380.56"/>
		<rect y="378.446" style="fill:#CEDEEE;" width="500" height="121.554"/>
	</g>
</g>
<g id="Objects">
	<g>
		
			<ellipse transform="matrix(0.9253 -0.3792 0.3792 0.9253 -119.3693 119.3295)" style="fill:#F2B8C4;" cx="243.243" cy="362.693" rx="14.984" ry="14.985"/>
		<g>
			<rect x="229.824" y="357.529" style="fill:none;" width="26.837" height="11.833"/>
			<text transform="matrix(1 0 0 1 232.9003 361.434)"><tspan x="0" y="0" style="fill:#FFFFFF; font-family:'BPreplay'; font-size:5px;">DELIBERY</tspan><tspan x="1.078" y="7" style="fill:#FFFFFF; font-family:'BPreplay'; font-size:5px;">SERVICE</tspan></text>
		</g>
	</g>
	<g>
		<g>
			<path style="fill:#E8EEEF;" d="M34.815,39.845C97.23,29.133,160.566,23.705,223.892,24.159
				c20.023,0.144,40.331,0.903,59.449,6.854c2.467,0.768,5.402,2.316,5.216,4.893c-0.092,1.272-0.978,2.338-1.908,3.211
				c-9.721,9.124-28.954,8.777-31.911,21.777c16.15,4.59,33.253,3.837,50.043,3.839c21.205,0.003,42.41,1.273,63.464,3.801
				c10.98,1.318,24.068,4.733,27.213,15.335c2.618,8.826-3.848,18.295-12.162,22.246c-8.315,3.951-17.92,3.757-27.12,3.443
				c-63.082-2.156-126.158-6.247-188.699-14.767c-24.786-3.376-51.259-7.209-73.817,3.6c-5.81,2.784-11.174,6.476-17.132,8.929
				c-20.369,8.384-46.335-0.786-56.922-20.102c-1.415-2.582-2.602-5.425-2.456-8.367c0.275-5.567,5.092-9.745,9.797-12.735
				c4.704-2.989,9.999-5.832,12.373-10.875c2.374-5.043-0.652-12.774-6.21-12.361C33.11,42.882,29.315,40.789,34.815,39.845z"/>
			<g>
				<path style="fill:#E8EEEF;" d="M35.126,40.975c42.572-5.942,85.13-10.833,128.079-13.026
					c20.834-1.064,41.704-1.523,62.565-1.317c10.029,0.099,20.074,0.372,30.054,1.428c5.369,0.568,10.711,1.377,15.991,2.504
					c2.44,0.521,4.866,1.112,7.271,1.776c2.487,0.687,8.121,1.419,5.386,5.408c-1.884,2.748-7.307,4.51-10.23,5.715
					c-3.16,1.303-6.383,2.455-9.487,3.892c-5.803,2.686-10.682,6.49-12.411,12.879c-0.35,1.291,0.433,2.703,1.735,3.056
					c20.899,5.664,42.808,3.433,64.196,4.023c10.921,0.301,21.833,0.94,32.715,1.91c9.363,0.835,19.212,1.279,28.242,4.093
					c8.358,2.605,16.764,9.008,13.49,18.895c-3.656,11.04-15.717,14.372-26.113,14.758c-10.665,0.396-21.461-0.513-32.115-0.98
					c-11.17-0.49-22.337-1.049-33.499-1.692c-45.545-2.626-90.968-6.737-136.169-12.942c-19.468-2.673-39.667-5.396-59.039-0.602
					c-9.51,2.354-17.476,7.17-26.08,11.615c-7.555,3.903-15.705,5.613-24.191,4.667c-9.112-1.016-18.189-4.914-25.074-10.987
					c-3.313-2.923-6.285-6.354-8.39-10.259c-3.846-7.134-1.078-12.331,4.97-16.762c5.941-4.353,14.741-8.541,15.021-17.047
					c0.098-2.996-0.894-6.314-3.047-8.475c-0.932-0.936-2.074-1.66-3.354-2.01c-1.38-0.377-3.469,0.414-0.502-0.476
					c1.529-0.458,0.875-2.61-0.648-2.35c-3.837,0.654-5.721,3.779-1.589,5.745c2.7,1.285,4.227,1.483,5.053,4.677
					c0.829,3.204-0.451,5.986-2.662,8.329c-3.649,3.867-8.909,5.804-13.109,8.964c-6.961,5.237-9.615,12.539-5.817,20.673
					c3.484,7.461,9.431,13.71,16.249,18.231c14.12,9.364,32.581,10.874,47.901,3.67c5.04-2.37,9.696-5.47,14.728-7.856
					c5.455-2.587,11.3-4.303,17.237-5.357c11.178-1.984,22.722-1.526,33.972-0.455c24.03,2.289,47.911,6.102,71.945,8.472
					c25.515,2.515,51.089,4.414,76.686,5.849c12.474,0.699,24.953,1.291,37.437,1.794c11.851,0.478,23.969,1.602,35.821,0.834
					c9.29-0.602,18.681-3.203,24.882-10.578c5.14-6.112,7.25-14.664,3.278-21.95c-4.157-7.624-13.053-10.948-21.102-12.586
					c-12.031-2.449-24.678-3.019-36.906-3.77c-13.72-0.842-27.448-1.049-41.191-1.008c-14.107,0.042-28.197-0.122-41.904-3.85
					c0.578,1.018,1.157,2.037,1.735,3.056c3.875-14.34,25.9-10.783,32.885-22.661c8.072-13.726-35.719-16.017-42.62-16.473
					c-22.755-1.502-45.771-0.879-68.542-0.047c-22.852,0.835-45.639,2.498-68.371,4.972c-25.473,2.772-50.863,6.284-75.982,11.368
					C32.996,39.02,33.674,41.177,35.126,40.975z"/>
			</g>
		</g>
		<g>
			<path style="fill:#E8EEEF;" d="M463.957,186.927c-63.964-5.741-128.273,2.505-191.925,11.038
				c-24.248,3.25-48.49,6.545-72.727,9.883c-3.55,0.489-7.252,1.037-10.177,3.108c-2.924,2.071-4.747,6.173-3.084,9.347
				c9.585,1.449,19.298-0.682,28.831-2.443c49.859-9.21,100.953-8.439,151.649-7.637c5.079,0.08,10.896,0.515,13.962,4.565
				c-5.56,6.476-8.293,15.298-7.369,23.783c0.27,2.474,1.057,5.221,3.263,6.374c1.674,0.875,3.697,0.574,5.547,0.19
				c8.178-1.697,16.059-4.565,23.906-7.424c15.897-5.79,31.794-11.58,47.691-17.37c7.784-2.835,15.845-5.844,21.647-11.758
				c5.802-5.913,8.623-15.626,4.217-22.642L463.957,186.927z"/>
			<g>
				<path style="fill:#E8EEEF;" d="M463.957,183.927c-79.577-6.494-159.375,6.209-238.015,16.966
					c-10.743,1.469-22.361,1.911-32.828,4.758c-6.754,1.837-13.134,8.052-10.208,15.518c0.585,1.494,1.57,2.21,3.139,2.39
					c15.582,1.79,31.6-3.416,46.945-5.572c16.764-2.356,33.669-3.676,50.577-4.411c16.254-0.706,32.527-0.85,48.795-0.763
					c8.137,0.044,16.274,0.146,24.41,0.265c6.483,0.095,16.803-1.573,21.595,3.831c0-1.414,0-2.828,0-4.242
					c-4.455,5.482-7.334,11.67-8.163,18.725c-0.611,5.202-0.706,13.155,4.668,16.135c5.642,3.128,15.415-1.305,20.843-3.089
					c8.606-2.829,17.075-6.097,25.585-9.2c8.559-3.12,17.118-6.24,25.678-9.36c7.329-2.672,14.973-5.031,21.806-8.858
					c11.307-6.334,20.236-19.85,13.157-32.57c-0.479-0.86-1.549-1.528-2.552-1.464c-5.15,0.33-10.286,0.893-15.431,1.222
					c-3.475,0.222-3.5,5.661,0,5.438c5.135-0.328,10.29-0.421,15.431-0.748c-0.851-0.488-1.701-0.976-2.552-1.464
					c6.627,11.923-5.768,22.32-15.498,26.686c-11.654,5.23-24.12,9.006-36.12,13.373c-11.832,4.306-23.607,9.064-35.69,12.625
					c-2.719,0.801-6.549,2.492-9.418,2.27c-4.368-0.337-4.237-4.391-4.157-7.808c0.151-6.478,2.58-12.662,6.654-17.671
					c1.072-1.317,1.168-2.923,0-4.242c-3.967-4.479-9.686-5.262-15.382-5.431c-8.685-0.259-17.386-0.286-26.074-0.376
					c-16.922-0.175-33.85-0.168-50.765,0.403c-16.87,0.57-33.728,1.693-50.486,3.74c-8.002,0.978-15.98,2.152-23.916,3.572
					c-9.621,1.723-19.251,3.95-29.075,2.588c0.758,0.758,1.516,1.516,2.274,2.274c-3.256-8.919,15.938-9.096,20.824-9.765
					c9.172-1.255,18.345-2.503,27.519-3.745c17.968-2.433,35.947-4.789,53.912-7.243c36.762-5.022,73.65-9.433,110.766-10.591
					c20.619-0.643,41.21-0.087,61.753,1.833C467.787,190.285,467.796,184.241,463.957,183.927z"/>
			</g>
		</g>
	</g>
	<g>
		<g>
			<path style="fill:#89E8E0;" d="M421.213,341.737c-12.575-15.298-18.616-34.785-24.375-53.732
				c-3.505-11.533-7.051-23.448-5.782-35.435c1.356-12.816,8.052-24.331,13.348-36.079c13.718-30.43,18.508-64.821,13.626-97.84
				c-2.002-13.541-5.595-26.933-5.661-40.62c-0.067-13.688,4.039-28.258,14.663-36.888c10.624-8.631,28.653-8.51,36.473,2.724
				c4.98,7.154,4.865,16.601,3.95,25.27c-0.915,8.667-2.435,17.271-4.547,25.727c-2.531,10.135-5.921,20.764-2.978,30.787
				c3.485,11.872,14.827,19.508,21.53,29.907c9.036,14.019,8.993,31.892,7.608,48.513c-0.926,11.116-2.34,22.301-6.087,32.808
				c-8.341,23.391-28.103,43.495-27.751,68.327c0.182,12.846,5.473,27.41-2.544,37.45c-2.901,3.632-6.552,5.54-10.64,6.785
				c-5.751,1.751-12.004,0.236-16.474-3.783L421.213,341.737z"/>
		</g>
		<g>
			<path style="fill:none;stroke:#60C6BA;stroke-linecap:round;stroke-linejoin:round;stroke-miterlimit:10;" d="M391.382,265.827
				c9.876,13.85,40.161,43.053,40.161,43.053"/>
			<path style="fill:none;stroke:#60C6BA;stroke-linecap:round;stroke-linejoin:round;stroke-miterlimit:10;" d="M401.059,227.472
				c9.1,9.557,21.608,24.939,30.483,34.706"/>
			<path style="fill:none;stroke:#60C6BA;stroke-linecap:round;stroke-linejoin:round;stroke-miterlimit:10;" d="M403.94,221.024
				c8.389,8.737,19.213,20.239,27.602,28.976"/>
			<path style="fill:none;stroke:#60C6BA;stroke-linecap:round;stroke-linejoin:round;stroke-miterlimit:10;" d="M431.542,274.841
				c0,0,39.449-29.499,53.88-46.677"/>
			<path style="fill:none;stroke:#60C6BA;stroke-linecap:round;stroke-linejoin:round;stroke-miterlimit:10;" d="M432.162,210.956
				c14.496-16.009,36.11-35.558,52.358-49.786"/>
			<path style="fill:none;stroke:#60C6BA;stroke-linecap:round;stroke-linejoin:round;stroke-miterlimit:10;" d="M431.542,75.557
				c0,107.853,0,215.707,0,323.56"/>
			<path style="fill:none;stroke:#60C6BA;stroke-linecap:round;stroke-linejoin:round;stroke-miterlimit:10;" d="M419.931,157.493
				c4.369,4.323,11.515,11.169,11.515,11.169"/>
			<path style="fill:none;stroke:#60C6BA;stroke-linecap:round;stroke-linejoin:round;stroke-miterlimit:10;" d="M431.876,149.671
				c9.445-7.255,18.89-14.51,28.335-21.764"/>
			<path style="fill:none;stroke:#60C6BA;stroke-linecap:round;stroke-linejoin:round;stroke-miterlimit:10;" d="M431.794,158.245
				c10.37-8.764,21.333-16.825,32.79-24.11"/>
			<path style="fill:none;stroke:#60C6BA;stroke-linecap:round;stroke-linejoin:round;stroke-miterlimit:10;" d="M411.988,78.491
				c6.245,5.478,12.842,10.555,19.735,15.191"/>
			<path style="fill:none;stroke:#60C6BA;stroke-linecap:round;stroke-linejoin:round;stroke-miterlimit:10;" d="M431.447,105.644
				c6.969-9.074,14.507-17.71,22.556-25.842c5.981-6.042,13.018-13.839,13.832-15.264"/>
		</g>
	</g>
	<g>
		<g>
			<path style="fill:#7D9BC1;" d="M77.556,402.395c-7.692-0.366-15.504-0.278-23.22-0.243c-7.728,0.036-15.536-0.018-23.22,0.494
				c-1.754,0.117-1.758,1.39,0,1.507c7.684,0.512,15.493,0.458,23.22,0.494c7.716,0.036,15.529,0.123,23.22-0.243
				C79.898,404.293,79.902,402.506,77.556,402.395L77.556,402.395z"/>
		</g>
		<g>
			<path style="fill:#7D9BC1;" d="M75.424,409.232c-4.885,0.011-10.827-0.459-15.389,0.711c-0.55,0.141-0.55,0.671,0,0.812
				c4.562,1.169,10.503,0.7,15.389,0.711C77.996,411.471,78,409.226,75.424,409.232L75.424,409.232z"/>
		</g>
		<g>
			<path style="fill:#7D9BC1;" d="M71.554,414.405c-18.939-0.21-37.856-0.411-56.76,0.372c-1.442,0.06-1.444,1.194,0,1.254
				c18.905,0.783,37.821,0.583,56.76,0.372C73.854,416.378,73.858,414.431,71.554,414.405L71.554,414.405z"/>
		</g>
	</g>
	<path style="fill:none;stroke:#257B8E;stroke-linecap:round;stroke-linejoin:round;stroke-miterlimit:10;" d="M64.022,380.867
		c-1.272-2.791-1.612-5.916-0.977-8.917c4.962-23.428,9.643-47.073,9.427-70.996c-0.173-19.174-3.494-38.174-4.774-57.306
		c-1.049-15.677-0.724-31.446,0.969-47.066c1.848-17.046,6.114-35.33,19.924-45.847c1.242-0.946,2.817-1.427,4.353-1.15
		c2.816,0.508,3.263,2.769,3.605,4.817c3.905,23.375,7.794,47.482,2.427,70.565c-2.744,11.802-7.905,23.503-6.432,35.531
		c0.602,4.918,2.301,9.624,3.867,14.324c6.598,19.812,11.03,41.089,6.792,61.536C98.964,356.806,84.368,376.168,64.022,380.867
		L64.022,380.867z"/>
	<ellipse style="fill:#BACFE0;" cx="249.579" cy="448.986" rx="196.464" ry="11.46"/>
	<g>
		<g>
			<polygon style="fill:#EA5769;" points="99.182,376.254 99.182,356.009 119.619,354.064 			"/>
			
				<ellipse transform="matrix(0.2331 -0.9725 0.9725 0.2331 -102.2582 705.7873)" style="fill:#7D9BC1;" cx="396.352" cy="417.727" rx="33.608" ry="33.608"/>
			<path style="fill:#F3F3F6;" d="M396.353,438.357c-11.375,0-20.63-9.255-20.63-20.63s9.255-20.63,20.63-20.63
				c11.375,0,20.628,9.255,20.628,20.63S407.728,438.357,396.353,438.357z"/>
			<path style="fill:none;stroke:#55A6D9;stroke-miterlimit:10;" d="M396.353,435.761c-9.944,0-18.034-8.09-18.034-18.034
				c0-9.944,8.09-18.034,18.034-18.034c9.943,0,18.033,8.09,18.033,18.034C414.385,427.671,406.296,435.761,396.353,435.761z"/>
			
				<ellipse transform="matrix(0.1619 -0.9868 0.9868 0.1619 -276.0053 510.4844)" style="fill:#7D9BC1;" cx="162.52" cy="417.727" rx="33.608" ry="33.608"/>
			<path style="fill:#F3F3F6;" d="M162.521,438.357c-11.375,0-20.63-9.255-20.63-20.63s9.255-20.63,20.63-20.63
				c11.375,0,20.629,9.255,20.629,20.63S173.896,438.357,162.521,438.357z"/>
			<path style="fill:none;stroke:#55A6D9;stroke-miterlimit:10;" d="M162.521,435.761c-9.944,0-18.034-8.09-18.034-18.034
				c0-9.944,8.09-18.034,18.034-18.034c9.943,0,18.033,8.09,18.033,18.034C180.554,427.671,172.464,435.761,162.521,435.761z"/>
			<path style="fill:#ED9CAB;" d="M300.884,411.058h-28.068c-15.948,0-26.933-16-21.204-30.883l19.336-50.228l-127.264,6.142
				c0,0-59.883,35.154-59.883,82.145c0,0,222.281,0,259.219,0c36.939,0,43.172-62.184,27.284-93.552
				c-15.888-31.367-25.257-51.589-25.257-51.589l-6.925,3.313c0,0,6.12,12.066,12.457,25.38c8.792,18.469,8.579,39.962-0.513,58.285
				l-6.968,14.042C332.506,395.458,324.662,409.537,300.884,411.058L300.884,411.058z"/>
			<path style="fill:#3059A7;" d="M270.948,329.947l-0.2-15.978l-135.97-9.444v16.457c0,4.331,1.981,8.425,5.378,11.112l4.961,3.925
				L270.948,329.947z"/>
			<path style="fill:none;stroke:#231F20;stroke-width:0.5;stroke-miterlimit:10;" d="M198.968,418.234
				c0,0,31.741-3.867,31.741-29.934c0-20.98-12.446-37.851-52.03-37.851c-48.993,0-84.035,67.786-84.035,67.786"/>
			<path style="fill:#F2B8C4;" d="M337.646,276.279l-9.116-20.533c0,0,10.217-22.067,35.193-18.434v24.91l-20.435,4.607l2.178,5.955
				c0.064,0.175-0.018,0.369-0.187,0.445l-7.163,3.229C337.936,276.539,337.725,276.459,337.646,276.279z"/>
			<path style="fill:#363D6B;" d="M338.981,264.101c0,2.297-1.862,4.16-4.16,4.16c-2.298,0-4.16-1.863-4.16-4.16
				c0-2.297,1.862-4.16,4.16-4.16C337.118,259.941,338.981,261.803,338.981,264.101z"/>
			<path style="fill:#F3D152;" d="M363.723,237.312c0,0,10.31,8.822,0,24.91V237.312z"/>
			<path style="fill:#ED9CAB;" d="M349.526,427.03c0,0,1.421-46.008,31.139-56.834c39.241-14.294,53.157,17.02,53.157,17.02
				s-2.354,0.296-26.228,5.312c-23.875,5.015-33.765,26.153-41.254,30.758C358.85,427.89,349.526,427.03,349.526,427.03z"/>
			<polygon style="fill:#F2B8C4;" points="374.153,334.152 378.501,324.935 385.784,352.73 377.403,348.309 			"/>
			<path style="fill:#F3D152;" d="M378.501,324.935c0,0,6.733,9.441,7.283,13.897c0.55,4.456,0,13.897,0,13.897l-7.076-26.813"/>
			<g>
				<path style="fill:#D68093;" d="M200.079,386.661h-35.67c-0.902,0-1.517-0.914-1.177-1.75l0,0
					c0.195-0.479,0.66-0.793,1.177-0.793h35.67c0.902,0,1.517,0.914,1.177,1.75l0,0
					C201.061,386.348,200.596,386.661,200.079,386.661z"/>
				<path style="fill:#D68093;" d="M197.41,393.227h-35.67c-0.902,0-1.517-0.914-1.177-1.75v0c0.195-0.479,0.66-0.792,1.177-0.792
					h35.67c0.902,0,1.517,0.914,1.177,1.75l0,0C198.393,392.914,197.927,393.227,197.41,393.227z"/>
				<path style="fill:#D68093;" d="M194.742,399.793h-35.669c-0.902,0-1.517-0.914-1.177-1.75l0,0
					c0.195-0.479,0.66-0.793,1.177-0.793h35.669c0.902,0,1.517,0.914,1.178,1.75l0,0
					C195.724,399.48,195.259,399.793,194.742,399.793z"/>
				<path style="fill:#D68093;" d="M192.073,406.359h-35.67c-0.902,0-1.517-0.914-1.177-1.75l0,0
					c0.195-0.479,0.66-0.793,1.177-0.793h35.67c0.902,0,1.517,0.914,1.177,1.75l0,0C193.056,406.045,192.59,406.359,192.073,406.359
					z"/>
			</g>
			<path style="fill:#224C91;" d="M151.051,305.656c-0.166-0.012,3.384,29.915,3.384,29.915l4.012-0.194l-3.701-29.721H151.051z"/>
			<path style="fill:#224C91;" d="M194.954,308.705c0.254,0.018,4.032,24.715,4.032,24.715l5.928-0.286l-2.05-23.88L194.954,308.705
				z"/>
			<g>
				<g>
					<path style="fill:#F7C9D2;" d="M132.235,379.294c5.184-4.89,10.702-9.593,16.783-13.335c6.156-3.788,12.523-5.818,19.463-7.577
						c0.794-0.201,0.628-1.434-0.193-1.427c-14.669,0.119-27.525,11.352-36.948,21.444
						C130.784,378.995,131.641,379.855,132.235,379.294L132.235,379.294z"/>
				</g>
			</g>
			<g>
				<g>
					<path style="fill:#F7C9D2;" d="M101.068,380.476c10.812-13.133,23.214-23.913,36.021-34.973
						c0.685-0.592-0.205-1.732-0.966-1.251c-14.153,8.944-26.101,22.168-35.681,35.742
						C100.184,380.359,100.78,380.826,101.068,380.476L101.068,380.476z"/>
				</g>
			</g>
			<g>
				<g>
					<path style="fill:#F7C9D2;" d="M359.678,332.384c-0.846,8.139-1.498,16.183-3.654,24.118
						c-2.013,7.409-5.38,14.223-8.001,21.401c-0.225,0.616,0.72,1.196,1.136,0.661c9.333-11.989,13.64-31.225,11.972-46.18
						C361.028,331.454,359.776,331.446,359.678,332.384L359.678,332.384z"/>
				</g>
			</g>
			<path style="fill:none;stroke:#231F20;stroke-width:0.5;stroke-miterlimit:10;" d="M349.911,422.162
				c1.314-12.122,6.977-43.305,30.754-51.966"/>
			<g>
				<g>
					<path style="fill:#F7C9D2;" d="M380.054,374.188c4.06-1.172,8.113-2.186,12.291-2.835c4.132-0.641,8.376-0.494,12.455-1.334
						c0.651-0.134,0.646-1.173,0-1.311c-7.96-1.695-17.787,0.986-25.207,3.807C378.571,372.904,378.961,374.504,380.054,374.188
						L380.054,374.188z"/>
				</g>
			</g>
			<g>
				<g>
					<path style="fill:#F7C9D2;" d="M340.932,245.71c2.942-1.636,6.063-2.79,9.301-3.689c2.558-0.71,5.364-0.912,7.719-2.158
						c0.494-0.261,0.206-0.912-0.26-0.961c-2.979-0.313-6.279,0.836-9.109,1.692c-2.976,0.9-5.764,2.185-8.408,3.82
						C339.354,244.922,340.085,246.18,340.932,245.71L340.932,245.71z"/>
				</g>
			</g>
		</g>
		<g>
			<path style="fill:#77464B;" d="M274.043,155.716l-11.274-8.931l-0.457,0.407c1.175,6.173,3.456,11.64,6.405,16.835
				L274.043,155.716z"/>
			<path style="fill:#845154;" d="M262.313,147.192l-17.725,15.787l15.243,14.919l8.887-13.87
				C265.769,158.832,263.488,153.365,262.313,147.192z"/>
			<path style="fill:#1B489A;" d="M239.212,271.454c-29.814-9.595-57.095,3.028-44.984,29.845
				c6.069,13.439,34.623,17.21,61.603,17.628c8.615-11.04,17.349-21.849,23.775-34.37
				C258.944,277.641,239.212,271.454,239.212,271.454z"/>
			<path style="fill:#845154;" d="M279.605,284.558c-6.426,12.521-15.16,23.33-23.775,34.37c26.858,0.417,52.156-2.489,52.156-2.489
				l17.734-14.274C322.454,299.334,300.552,291.57,279.605,284.558z"/>
			<path style="fill:#845154;" d="M325.72,302.165c0,0,4.963,4.197,3.048,10.71c-1.916,6.513-31.417,90.421-31.417,90.421
				l-4.598-1.851c0,0-2.682-64.431,5.364-75.542S325.72,302.165,325.72,302.165z"/>
			<path style="fill:#F3F3F6;" d="M292.719,400.568l-2.595,5.806c-0.722,1.615-0.762,3.453-0.112,5.098l0.055,0.139
				c0.482,1.22,1.624,2.053,2.933,2.139l17.765,1.17l8.656-2.982c0.407-0.14,0.538-0.652,0.248-0.97l-0.688-0.757
				c-0.214-0.236-0.524-0.361-0.842-0.341l-7.374,0.46l-12.679-9.129L292.719,400.568z"/>
			<path style="fill:#81CAEF;" d="M233.188,188.868c2.391,17.933,4.804,36.957,15.311,52.021l-0.989-16.885c0,0,4.891-1,9.839-3.427
				C254.468,206.995,241.604,198.486,233.188,188.868z"/>
			<path style="fill:#1B489A;" d="M203.484,251.428c-6.139,12.985-13.054,29.554-12.174,36.704l59.189-13.092l-1.254-21.409
				C234.195,256.284,218.472,256.724,203.484,251.428z"/>
			<path style="fill:#8ED4FD;" d="M259.831,177.898l-11.757-18.024c0,0-12.323,4.749-19.637,14.193
				c-5.309,6.855-16.064,59.684-16.064,59.684s-4.22,7.803-8.889,17.677c14.988,5.296,30.711,4.856,45.761,2.202l-0.746-12.742
				c-10.507-15.063-12.92-34.087-15.311-52.021c8.416,9.618,21.279,18.127,24.161,31.708c4.681-2.296,9.412-5.868,10.097-11.092
				C268.855,198.739,259.831,177.898,259.831,177.898z"/>
			<g>
				<path style="fill:#845154;" d="M266.372,152.52c0,0,4.888,5.114,13.189,5.793c19.081,1.56,19.169-38.406,7.792-46.73
					c-11.377-8.325-26.519-7.687-33.001,5.549c-3.351,6.843-2.231,24.231,6.093,31.724L266.372,152.52z"/>
				<path style="fill:#845154;" d="M294.991,132.209c0,0,3.96,9.515,1.689,11.549c-1.702,1.525-4.107,1.027-4.107,1.027"/>
			</g>
			<path style="fill:#231F20;" d="M290.469,132.574c-0.11,0.973-0.583,1.718-1.055,1.665c-0.473-0.053-0.767-0.886-0.656-1.858
				c0.11-0.973,0.582-1.718,1.055-1.665C290.285,130.769,290.579,131.601,290.469,132.574z"/>
			<circle style="fill:#7F494E;" cx="282.306" cy="141.548" r="7.307"/>
			<g>
				<g>
					<path style="fill:#231F20;" d="M286.766,129.062c0.668-0.326,1.346-0.551,2.067-0.723c0.548-0.131,1.097-0.187,1.548-0.543
						c0.116-0.092,0.086-0.327-0.05-0.387c-1.204-0.523-2.858,0.556-3.814,1.228C286.258,128.819,286.479,129.202,286.766,129.062
						L286.766,129.062z"/>
				</g>
			</g>
			<g>
				<path style="fill:#633439;" d="M287.483,143.615c0.452,1.228,1.026,2.168,2.078,2.98c0.815,0.629,2.185,1.415,3.246,1.042
					c0.206-0.073,0.237-0.327,0.059-0.45c-0.803-0.555-1.855-0.684-2.689-1.249c-0.904-0.612-1.73-1.543-2.177-2.54
					C287.87,143.107,287.372,143.314,287.483,143.615L287.483,143.615z"/>
			</g>
			<path style="fill:#262533;" d="M287.353,111.583c2.854-0.343-17.794-11.646-28.851-2.794
				c-11.057,8.853-8.246,35.815-18.779,36.073c-95.173,2.33-68.096,65.732-44.581,65.178c23.515-0.553,27.106-19.938,30.149-28.843
				c0,0,0.926-14.636,27.3-19.987s15.586-22.391,15.586-22.391s7.961-0.002,7.285-12.686
				C275.463,126.134,282.104,112.214,287.353,111.583z"/>
			<path style="fill:#262533;" d="M287.467,111.103c0,0,2.274,2.344,3.434,4.657c0,0-8.071,3.998-10.991,7.81
				c0,0,2.284,12.829-4.262,14.965c-6.546,2.137-7.867,0-7.867,0S274.502,107.153,287.467,111.103z"/>
			<g>
				<path style="fill:#845154;" d="M270.948,133.684c0,0-2.089-3.055-5.707-0.753c-3.619,2.303,0.354,9.018,5.468,7.136
					L270.948,133.684z"/>
				<g>
					<path style="fill:#633439;" d="M269.934,135.355c-0.124-0.977-1.522-1.522-2.406-1.372c-0.972,0.164-1.887,1.137-1.902,2.146
						c-0.004,0.262,0.362,0.441,0.545,0.226c0.213-0.251,0.36-0.542,0.662-0.696c0.292-0.148,0.66-0.25,0.984-0.29
						c0.684-0.086,1.094,0.301,1.72,0.383C269.733,135.776,269.959,135.548,269.934,135.355L269.934,135.355z"/>
				</g>
			</g>
			<g>
				<path style="fill:#072D5B;" d="M279.833,160.256c-0.561,0-1.119-0.241-1.504-0.709c-3.831-4.651-6.709-10.177-8.322-15.983
					c-0.288-1.036,0.319-2.109,1.355-2.397c1.035-0.287,2.108,0.318,2.397,1.355c1.468,5.285,4.087,10.316,7.575,14.549
					c0.684,0.83,0.565,2.056-0.265,2.74C280.707,160.111,280.269,160.256,279.833,160.256z"/>
			</g>
			<g>
				<path style="fill:#1B489A;" d="M243.72,142.174c0,0-17.872-38.779,21.972-44.471c6.152-0.879,20.038,0.879,25.839,14.941
					l-11.485,9.369c-1.197,0.976-1.941,2.4-2.059,3.94l-0.999,12.987c-0.312,4.053-3.956,7.017-7.987,6.497L243.72,142.174z"/>
				<g>
					<g>
						<path style="fill:#0E3977;" d="M269.931,146.06c-0.333,0-0.667-0.021-1.003-0.064l-25.281-3.262
							c-0.309-0.04-0.527-0.323-0.487-0.632c0.041-0.308,0.328-0.516,0.632-0.487l25.281,3.262c1.791,0.229,3.555-0.269,4.96-1.411
							c1.404-1.142,2.254-2.765,2.393-4.57l0.999-12.986c0.129-1.686,0.955-3.265,2.265-4.333l11.485-9.369
							c0.24-0.198,0.598-0.161,0.794,0.08c0.196,0.241,0.161,0.596-0.08,0.793l-11.486,9.369c-1.072,0.874-1.747,2.166-1.853,3.546
							l-0.999,12.986c-0.163,2.116-1.159,4.018-2.806,5.358C273.361,145.465,271.681,146.06,269.931,146.06z"/>
					</g>
				</g>
			</g>
			<path style="fill:#255DAF;" d="M248.394,318.56l23.166-38.286c0.097-0.161,0.297-0.228,0.471-0.158l14.252,5.709
				c0.236,0.095,0.317,0.388,0.162,0.59L261.2,319.429c-0.076,0.099-0.194,0.155-0.319,0.15l-12.173-0.437
				C248.416,319.132,248.242,318.811,248.394,318.56z"/>
			
				<line style="fill:none;stroke:#231F20;stroke-width:0.25;stroke-miterlimit:10;" x1="239.212" y1="271.454" x2="270.748" y2="281.617"/>
			<path style="fill:#8ED4FD;" d="M285.595,111.504c1.742,0,3.35-0.563,4.664-1.508c-2.973-5.44-7.28-8.662-11.616-10.463
				c-0.668,1.17-1.056,2.52-1.056,3.964C277.588,107.919,281.173,111.504,285.595,111.504z"/>
			<path style="fill:#55A6D9;" d="M292.719,400.568l-1.515-11.706c-0.042-0.323,0.233-0.598,0.556-0.558l10.817,1.352
				c0.333,0.042,0.53,0.393,0.392,0.699l-4.882,10.847L292.719,400.568z"/>
		</g>
		<g>
			<path style="fill:none;stroke:#F3D152;stroke-miterlimit:10;" d="M170.464,258.903c0.93-4.882,2.578-11.952,4.398-16.576
				c10.048-25.517,25.981-48.696,46.206-67.216c5.842-5.35,23.234-16.64,31.188-8.824"/>
			<path style="fill:none;stroke:#F3D152;stroke-miterlimit:10;" d="M254.402,282.523c5.692-11.559,5.796-52.138,5.688-75.317
				c-0.024-5.257-0.052-10.549-1.038-15.712c-1.157-6.059-3.208-20.19-6.795-25.207"/>
			<g>
				<g>
					<path style="fill:#F3D152;" d="M170.214,257.277c20.101,7.071,35.657,16.953,56.589,21.792c0,0,24.646,0.75,29.48,0.074
						l-10.98,41.182c-1.837,6.891-8.914,10.987-15.804,9.147l-59.448-15.869c-6.719-1.794-10.81-8.587-9.252-15.365L170.214,257.277
						z"/>
				</g>
				<path style="fill:#F3F3F6;" d="M176.907,284.558l-22.161,12.47l5.722,16.896c0,0,24.204-7.864,26.688-11.759
					C189.641,298.27,176.907,284.558,176.907,284.558z"/>
				<polygon style="fill:#F3F3F6;" points="211.361,309.844 224.125,328.037 237.347,325.105 226.663,309.844 				"/>
				<polygon style="fill:#F3F3F6;" points="181.442,293.594 178.212,312.184 196.014,314.522 196.128,299.834 				"/>
				<path style="fill:#F5DE5D;stroke:#231F20;stroke-width:0.25;stroke-miterlimit:10;" d="M170.214,257.277
					c0,0-8.279,42.034,1.302,47.248c9.581,5.214,56.138,17.778,63.929,15.055c7.79-2.724,20.839-40.437,20.839-40.437"/>
			</g>
		</g>
		<path style="fill:none;stroke:#231F20;stroke-width:0.25;stroke-miterlimit:10;" d="M233.858,188.103
			c1.918,5.901,5.502,15.211,10.445,25.737"/>
		<g>
			<path style="fill:#845154;" d="M277.615,233.092c0,0-4.726-11.425-10.717-29.438c-7.501,3.44-15.001,6.507-22.502,10.138
				c7.069,15.026,15.759,30.705,21.874,36.433c11.835,11.086,58.546,11.798,58.546,11.798l1.174-4.743L277.615,233.092z"/>
			<path style="fill:#8ED4FD;" d="M261.136,185.389c-1.662-5.573-3.517-9.757-5.424-12.885c-5.499-9.02-19.035-7.506-22.427,2.498
				c-0.754,2.223-1.206,4.627-1.022,7.028c0.325,4.222,5.52,17.707,12.133,31.763c7.501-3.631,15.001-6.699,22.502-10.138
				C265.063,198.136,263.11,192.007,261.136,185.389z"/>
			<path style="fill:#845154;" d="M324.817,262.024c0,0,1.301,2.859,3.677,2.701c1.39-0.093,3.532-1.922,5.071-3.425
				c1.106-1.08,2.847-1.138,4.02-0.132l2.294,1.968c0,0-3.484,2.847-2.692,5.223l5.243-4.285c0.61-0.498,0.768-1.365,0.375-2.047
				l-4.044-7.004c-0.365-0.633-1.111-0.939-1.816-0.746l-10.954,3.003L324.817,262.024z"/>
			<path style="fill:none;stroke:#231F20;stroke-width:0.25;stroke-miterlimit:10;" d="M266.898,203.655
				c-1.835-5.519-3.788-11.648-5.762-18.266c-1.662-5.573-3.517-9.757-5.424-12.885c-2.967-4.867-8.274-6.667-13.065-5.721"/>
		</g>
	</g>
	<g>
		<g>
			<path style="fill:#48AFCD;" d="M55.935,368.635c-1.681,1.449-4.144,1.619-5.964,0.349c-12.233-8.528-20.846-21.717-26.201-35.711
				c-5.806-15.175-8.152-31.417-10.386-47.511c-3.931-28.324-7.568-57.695,0.639-85.087c3.109-10.375,8.506-20.913,18.118-25.904
				c2.392-1.242,5.144-2.109,7.771-1.508c4.419,1.011,6.888,5.629,8.595,9.829c17.127,42.135,14.667,89.374,10.778,134.691
				c-1.334,15.551-2.805,31.189-1.669,46.741C57.733,366.086,57.121,367.612,55.935,368.635L55.935,368.635z"/>
		</g>
		<g>
			<path style="fill:none;stroke:#257B8E;stroke-linecap:round;stroke-linejoin:round;stroke-miterlimit:10;" d="M32.577,217.403
				c0.374,42.437,0.844,85.54,13.003,126.2c1.563,5.226,3.318,10.402,5.499,15.402c4.089,9.372,9.777,18.536,9.963,28.76"/>
			
				<line style="fill:none;stroke:#257B8E;stroke-linecap:round;stroke-linejoin:round;stroke-miterlimit:10;" x1="42.04" y1="330.353" x2="18.204" y2="314.408"/>
			
				<line style="fill:none;stroke:#257B8E;stroke-linecap:round;stroke-linejoin:round;stroke-miterlimit:10;" x1="37.499" y1="306.542" x2="61.292" y2="271.453"/>
			
				<line style="fill:none;stroke:#257B8E;stroke-linecap:round;stroke-linejoin:round;stroke-miterlimit:10;" x1="36.724" y1="301.009" x2="61.042" y2="265.187"/>
			
				<line style="fill:none;stroke:#257B8E;stroke-linecap:round;stroke-linejoin:round;stroke-miterlimit:10;" x1="34.223" y1="280.164" x2="10.128" y2="258.855"/>
			
				<line style="fill:none;stroke:#257B8E;stroke-linecap:round;stroke-linejoin:round;stroke-miterlimit:10;" x1="34.223" y1="275.187" x2="10.128" y2="251.718"/>
			
				<line style="fill:none;stroke:#257B8E;stroke-linecap:round;stroke-linejoin:round;stroke-miterlimit:10;" x1="33.125" y1="251.718" x2="58.308" y2="217.403"/>
			
				<line style="fill:none;stroke:#257B8E;stroke-linecap:round;stroke-linejoin:round;stroke-miterlimit:10;" x1="32.577" y1="230.292" x2="10.22" y2="218.882"/>
			
				<line style="fill:none;stroke:#257B8E;stroke-linecap:round;stroke-linejoin:round;stroke-miterlimit:10;" x1="45.58" y1="343.603" x2="58.143" y2="331.549"/>
		</g>
	</g>
</g>
<g id="designed_by_freepik">
	<g>
		<g>
			<path style="fill:#7D9BC1;" d="M183.667,482.565v-0.153c-0.207,0.237-0.412,0.43-0.613,0.579
				c-0.201,0.149-0.42,0.263-0.656,0.339c-0.235,0.078-0.492,0.116-0.771,0.116c-0.37,0-0.711-0.078-1.026-0.234
				c-0.314-0.156-0.586-0.38-0.816-0.67c-0.23-0.29-0.404-0.63-0.523-1.022c-0.118-0.392-0.178-0.816-0.178-1.271
				c0-0.964,0.236-1.717,0.706-2.255c0.471-0.538,1.09-0.807,1.859-0.807c0.444,0,0.819,0.077,1.124,0.228
				c0.305,0.153,0.603,0.388,0.893,0.703v-2.277c0-0.317,0.063-0.555,0.189-0.717c0.126-0.162,0.306-0.243,0.539-0.243
				c0.233,0,0.413,0.074,0.539,0.223c0.126,0.149,0.189,0.368,0.189,0.658v6.803c0,0.294-0.067,0.514-0.203,0.661
				c-0.136,0.146-0.31,0.22-0.525,0.22c-0.211,0-0.385-0.076-0.523-0.228C183.736,483.065,183.667,482.848,183.667,482.565z
				 M180.633,480.3c0,0.418,0.065,0.774,0.195,1.068c0.13,0.294,0.308,0.515,0.534,0.663c0.226,0.149,0.473,0.224,0.74,0.224
				c0.271,0,0.519-0.071,0.743-0.213c0.224-0.141,0.403-0.358,0.536-0.649c0.134-0.292,0.201-0.658,0.201-1.094
				c0-0.411-0.067-0.764-0.201-1.06c-0.134-0.295-0.314-0.521-0.542-0.678c-0.228-0.156-0.477-0.234-0.748-0.234
				c-0.282,0-0.535,0.08-0.757,0.24c-0.222,0.16-0.395,0.389-0.517,0.689C180.694,479.557,180.633,479.904,180.633,480.3z"/>
			<path style="fill:#7D9BC1;" d="M190.469,480.69h-3.017c0.004,0.35,0.074,0.659,0.212,0.926c0.137,0.268,0.32,0.469,0.548,0.605
				c0.228,0.136,0.48,0.203,0.754,0.203c0.184,0,0.353-0.021,0.506-0.064c0.153-0.044,0.3-0.111,0.444-0.204
				c0.143-0.092,0.275-0.191,0.395-0.297c0.12-0.106,0.276-0.249,0.469-0.43c0.079-0.067,0.192-0.102,0.34-0.102
				c0.158,0,0.286,0.044,0.383,0.131c0.098,0.087,0.148,0.209,0.148,0.367c0,0.139-0.055,0.302-0.164,0.488
				c-0.11,0.187-0.275,0.366-0.495,0.537c-0.221,0.171-0.497,0.313-0.831,0.426c-0.333,0.113-0.716,0.17-1.15,0.17
				c-0.99,0-1.761-0.283-2.311-0.848c-0.55-0.565-0.825-1.332-0.825-2.299c0-0.456,0.067-0.879,0.203-1.268
				c0.136-0.39,0.334-0.724,0.593-1.003c0.26-0.279,0.58-0.492,0.961-0.641c0.38-0.149,0.802-0.223,1.266-0.223
				c0.602,0,1.119,0.126,1.55,0.381c0.432,0.254,0.755,0.583,0.97,0.985c0.214,0.403,0.322,0.815,0.322,1.232
				c0,0.389-0.111,0.639-0.333,0.755C191.185,480.632,190.872,480.69,190.469,480.69z M187.452,479.814h2.797
				c-0.037-0.527-0.18-0.922-0.427-1.184c-0.247-0.262-0.571-0.393-0.975-0.393c-0.384,0-0.7,0.132-0.946,0.398
				C187.655,478.901,187.505,479.294,187.452,479.814z"/>
			<path style="fill:#7D9BC1;" d="M197.497,481.429c0,0.426-0.103,0.791-0.311,1.094c-0.207,0.303-0.513,0.533-0.918,0.69
				c-0.405,0.156-0.897,0.234-1.477,0.234c-0.554,0-1.028-0.085-1.424-0.254c-0.395-0.169-0.688-0.382-0.876-0.635
				c-0.188-0.255-0.283-0.509-0.283-0.766c0-0.17,0.06-0.314,0.181-0.434c0.12-0.12,0.273-0.181,0.458-0.181
				c0.161,0,0.285,0.04,0.372,0.118c0.087,0.079,0.17,0.191,0.248,0.333c0.158,0.276,0.348,0.48,0.568,0.616
				c0.22,0.135,0.52,0.203,0.901,0.203c0.309,0,0.562-0.069,0.76-0.206c0.197-0.138,0.296-0.295,0.296-0.472
				c0-0.271-0.102-0.468-0.308-0.593c-0.205-0.124-0.543-0.243-1.014-0.357c-0.531-0.131-0.963-0.27-1.297-0.415
				c-0.334-0.144-0.6-0.336-0.799-0.573c-0.199-0.238-0.299-0.53-0.299-0.876c0-0.308,0.092-0.601,0.277-0.876
				c0.185-0.274,0.457-0.494,0.817-0.658c0.359-0.164,0.793-0.246,1.302-0.246c0.399,0,0.758,0.041,1.076,0.125
				c0.319,0.082,0.585,0.194,0.797,0.333c0.213,0.139,0.375,0.293,0.486,0.462c0.111,0.17,0.166,0.335,0.166,0.498
				c0,0.177-0.059,0.322-0.178,0.435c-0.119,0.112-0.287,0.17-0.506,0.17c-0.158,0-0.293-0.045-0.404-0.137
				c-0.111-0.09-0.238-0.225-0.381-0.406c-0.117-0.151-0.254-0.271-0.412-0.362c-0.158-0.091-0.373-0.135-0.645-0.135
				c-0.279,0-0.51,0.059-0.695,0.178c-0.184,0.118-0.277,0.265-0.277,0.443c0,0.163,0.068,0.295,0.203,0.398
				c0.136,0.104,0.318,0.19,0.549,0.257c0.23,0.067,0.546,0.15,0.949,0.248c0.478,0.117,0.868,0.257,1.172,0.418
				c0.303,0.161,0.533,0.353,0.69,0.574C197.419,480.896,197.497,481.147,197.497,481.429z"/>
			<path style="fill:#7D9BC1;" d="M199.073,476.458c-0.215,0-0.398-0.066-0.551-0.198c-0.152-0.131-0.229-0.318-0.229-0.559
				c0-0.219,0.078-0.398,0.234-0.54c0.156-0.142,0.338-0.212,0.545-0.212c0.2,0,0.377,0.064,0.531,0.192
				c0.155,0.128,0.232,0.314,0.232,0.559c0,0.238-0.076,0.423-0.227,0.556C199.459,476.391,199.28,476.458,199.073,476.458z
				 M199.836,478.051v4.457c0,0.309-0.074,0.543-0.221,0.701c-0.147,0.158-0.333,0.237-0.559,0.237c-0.226,0-0.41-0.081-0.551-0.243
				c-0.141-0.162-0.212-0.394-0.212-0.695v-4.413c0-0.304,0.07-0.534,0.212-0.689c0.141-0.155,0.325-0.232,0.551-0.232
				c0.226,0,0.412,0.077,0.559,0.232C199.763,477.561,199.836,477.776,199.836,478.051z"/>
			<path style="fill:#7D9BC1;" d="M206.593,478.305v4.48c0,0.512-0.055,0.953-0.165,1.323c-0.108,0.368-0.284,0.674-0.525,0.915
				c-0.241,0.241-0.557,0.42-0.946,0.536c-0.39,0.117-0.875,0.175-1.455,0.175c-0.531,0-1.006-0.074-1.424-0.223
				c-0.418-0.149-0.74-0.341-0.966-0.576c-0.226-0.235-0.339-0.477-0.339-0.726c0-0.188,0.064-0.342,0.193-0.46
				c0.128-0.119,0.283-0.178,0.463-0.178c0.226,0,0.424,0.1,0.593,0.299c0.083,0.102,0.168,0.205,0.257,0.309
				c0.089,0.104,0.187,0.192,0.294,0.266c0.107,0.073,0.236,0.127,0.387,0.163c0.151,0.035,0.324,0.053,0.52,0.053
				c0.399,0,0.709-0.055,0.93-0.167c0.22-0.111,0.375-0.267,0.463-0.466c0.089-0.199,0.14-0.413,0.156-0.641s0.026-0.594,0.034-1.1
				c-0.237,0.332-0.511,0.585-0.822,0.758c-0.311,0.173-0.681,0.26-1.11,0.26c-0.516,0-0.967-0.132-1.354-0.396
				c-0.386-0.264-0.683-0.633-0.889-1.107c-0.207-0.475-0.311-1.022-0.311-1.644c0-0.463,0.063-0.882,0.189-1.254
				c0.127-0.374,0.307-0.688,0.54-0.944c0.234-0.256,0.503-0.449,0.808-0.579c0.305-0.13,0.64-0.195,1.006-0.195
				c0.437,0,0.815,0.084,1.136,0.251c0.32,0.169,0.618,0.431,0.893,0.789v-0.21c0-0.267,0.066-0.474,0.197-0.622
				c0.132-0.146,0.302-0.22,0.509-0.22c0.297,0,0.495,0.098,0.593,0.291C206.544,477.66,206.593,477.94,206.593,478.305z
				 M202.124,480.26c0,0.625,0.136,1.098,0.409,1.418c0.273,0.321,0.626,0.48,1.06,0.48c0.256,0,0.498-0.069,0.726-0.206
				c0.228-0.138,0.414-0.345,0.557-0.622c0.143-0.277,0.215-0.613,0.215-1.008c0-0.629-0.138-1.119-0.415-1.469
				c-0.277-0.35-0.641-0.526-1.094-0.526c-0.441,0-0.794,0.168-1.059,0.503C202.256,479.166,202.124,479.643,202.124,480.26z"/>
			<path style="fill:#7D9BC1;" d="M209.044,478.028v0.186c0.271-0.358,0.568-0.62,0.89-0.788c0.322-0.167,0.692-0.251,1.11-0.251
				c0.407,0,0.77,0.089,1.091,0.266c0.32,0.177,0.56,0.428,0.717,0.751c0.102,0.189,0.168,0.393,0.198,0.611
				c0.03,0.219,0.046,0.497,0.046,0.837v2.87c0,0.309-0.071,0.543-0.212,0.701c-0.141,0.158-0.325,0.237-0.551,0.237
				c-0.23,0-0.416-0.081-0.56-0.243c-0.143-0.162-0.215-0.394-0.215-0.695v-2.571c0-0.508-0.071-0.898-0.212-1.167
				c-0.141-0.269-0.423-0.404-0.845-0.404c-0.274,0-0.525,0.082-0.751,0.246c-0.226,0.164-0.392,0.39-0.497,0.676
				c-0.075,0.23-0.113,0.659-0.113,1.288v1.932c0,0.313-0.073,0.548-0.217,0.704c-0.145,0.156-0.332,0.234-0.562,0.234
				c-0.223,0-0.405-0.081-0.548-0.243c-0.143-0.162-0.215-0.394-0.215-0.695v-4.457c0-0.294,0.064-0.513,0.192-0.659
				c0.128-0.145,0.303-0.217,0.525-0.217c0.136,0,0.258,0.032,0.368,0.096c0.109,0.064,0.197,0.16,0.262,0.288
				C209.011,477.687,209.044,477.844,209.044,478.028z"/>
			<path style="fill:#7D9BC1;" d="M218.428,480.69h-3.017c0.004,0.35,0.074,0.659,0.212,0.926c0.137,0.268,0.32,0.469,0.548,0.605
				c0.227,0.136,0.479,0.203,0.754,0.203c0.185,0,0.353-0.021,0.506-0.064c0.152-0.044,0.3-0.111,0.444-0.204
				c0.143-0.092,0.274-0.191,0.396-0.297c0.12-0.106,0.276-0.249,0.469-0.43c0.079-0.067,0.192-0.102,0.339-0.102
				c0.158,0,0.286,0.044,0.384,0.131c0.098,0.087,0.147,0.209,0.147,0.367c0,0.139-0.054,0.302-0.164,0.488
				c-0.11,0.187-0.274,0.366-0.495,0.537c-0.22,0.171-0.497,0.313-0.83,0.426c-0.333,0.113-0.717,0.17-1.15,0.17
				c-0.99,0-1.761-0.283-2.311-0.848c-0.549-0.565-0.825-1.332-0.825-2.299c0-0.456,0.068-0.879,0.203-1.268
				c0.136-0.39,0.334-0.724,0.594-1.003c0.26-0.279,0.58-0.492,0.96-0.641c0.38-0.149,0.803-0.223,1.266-0.223
				c0.602,0,1.119,0.126,1.55,0.381c0.432,0.254,0.755,0.583,0.97,0.985c0.214,0.403,0.322,0.815,0.322,1.232
				c0,0.389-0.111,0.639-0.333,0.755C219.144,480.632,218.832,480.69,218.428,480.69z M215.411,479.814h2.797
				c-0.037-0.527-0.18-0.922-0.426-1.184c-0.247-0.262-0.572-0.393-0.974-0.393c-0.385,0-0.7,0.132-0.947,0.398
				C215.613,478.901,215.464,479.294,215.411,479.814z"/>
			<path style="fill:#7D9BC1;" d="M224.716,482.565v-0.153c-0.207,0.237-0.411,0.43-0.613,0.579
				c-0.202,0.149-0.42,0.263-0.655,0.339c-0.235,0.078-0.492,0.116-0.771,0.116c-0.37,0-0.711-0.078-1.026-0.234
				c-0.315-0.156-0.587-0.38-0.816-0.67c-0.23-0.29-0.404-0.63-0.523-1.022c-0.119-0.392-0.178-0.816-0.178-1.271
				c0-0.964,0.235-1.717,0.706-2.255c0.471-0.538,1.091-0.807,1.859-0.807c0.444,0,0.819,0.077,1.124,0.228
				c0.305,0.153,0.603,0.388,0.892,0.703v-2.277c0-0.317,0.063-0.555,0.19-0.717c0.126-0.162,0.306-0.243,0.54-0.243
				c0.233,0,0.413,0.074,0.539,0.223c0.126,0.149,0.189,0.368,0.189,0.658v6.803c0,0.294-0.068,0.514-0.203,0.661
				c-0.136,0.146-0.31,0.22-0.525,0.22c-0.211,0-0.385-0.076-0.523-0.228C224.785,483.065,224.716,482.848,224.716,482.565z
				 M221.682,480.3c0,0.418,0.065,0.774,0.195,1.068c0.13,0.294,0.308,0.515,0.534,0.663c0.226,0.149,0.472,0.224,0.74,0.224
				c0.272,0,0.519-0.071,0.743-0.213c0.224-0.141,0.404-0.358,0.537-0.649c0.134-0.292,0.201-0.658,0.201-1.094
				c0-0.411-0.067-0.764-0.201-1.06c-0.133-0.295-0.314-0.521-0.542-0.678c-0.228-0.156-0.477-0.234-0.749-0.234
				c-0.282,0-0.535,0.08-0.757,0.24c-0.222,0.16-0.394,0.389-0.517,0.689C221.743,479.557,221.682,479.904,221.682,480.3z"/>
			<path style="fill:#7D9BC1;" d="M231.02,475.763v2.356c0.29-0.301,0.586-0.532,0.887-0.692c0.301-0.16,0.674-0.24,1.119-0.24
				c0.512,0,0.961,0.121,1.348,0.364c0.385,0.244,0.685,0.596,0.898,1.057c0.213,0.461,0.319,1.009,0.319,1.642
				c0,0.467-0.059,0.895-0.178,1.285c-0.119,0.39-0.291,0.728-0.517,1.014c-0.226,0.286-0.5,0.508-0.822,0.665
				c-0.322,0.156-0.677,0.234-1.065,0.234c-0.238,0-0.461-0.028-0.669-0.085c-0.21-0.056-0.387-0.13-0.534-0.223
				c-0.146-0.092-0.272-0.187-0.376-0.285c-0.104-0.098-0.24-0.245-0.41-0.441v0.153c0,0.29-0.07,0.509-0.209,0.659
				c-0.139,0.149-0.316,0.223-0.531,0.223c-0.218,0-0.393-0.074-0.523-0.223c-0.13-0.149-0.195-0.369-0.195-0.659v-6.735
				c0-0.313,0.063-0.549,0.189-0.709c0.126-0.16,0.303-0.24,0.529-0.24c0.238,0,0.42,0.076,0.548,0.228
				C230.956,475.263,231.02,475.48,231.02,475.763z M231.094,480.345c0,0.614,0.14,1.085,0.421,1.415
				c0.281,0.33,0.649,0.495,1.105,0.495c0.388,0,0.722-0.168,1.003-0.506c0.281-0.338,0.421-0.82,0.421-1.449
				c0-0.407-0.058-0.758-0.175-1.051c-0.117-0.294-0.282-0.521-0.497-0.681c-0.215-0.16-0.466-0.24-0.752-0.24
				c-0.294,0-0.556,0.08-0.785,0.24c-0.23,0.16-0.411,0.392-0.543,0.695C231.16,479.565,231.094,479.927,231.094,480.345z"/>
			<path style="fill:#7D9BC1;" d="M237.591,483.639l0.141-0.345l-1.898-4.78c-0.116-0.274-0.175-0.475-0.175-0.599
				c0-0.132,0.034-0.254,0.102-0.367c0.068-0.113,0.161-0.204,0.279-0.271c0.119-0.069,0.242-0.102,0.37-0.102
				c0.222,0,0.389,0.071,0.503,0.212c0.113,0.141,0.213,0.343,0.299,0.607l1.305,3.797l1.237-3.531
				c0.098-0.285,0.186-0.51,0.265-0.672c0.079-0.162,0.163-0.271,0.251-0.327c0.088-0.057,0.214-0.085,0.376-0.085
				c0.117,0,0.229,0.031,0.336,0.094c0.107,0.062,0.19,0.146,0.248,0.251c0.058,0.105,0.088,0.216,0.088,0.333
				c-0.016,0.071-0.04,0.173-0.074,0.306c-0.034,0.131-0.075,0.266-0.124,0.401l-2.011,5.266c-0.174,0.463-0.343,0.826-0.509,1.09
				c-0.166,0.264-0.385,0.467-0.658,0.608c-0.273,0.142-0.641,0.212-1.105,0.212c-0.452,0-0.791-0.049-1.016-0.146
				c-0.227-0.099-0.339-0.278-0.339-0.537c0-0.177,0.053-0.314,0.161-0.41c0.107-0.096,0.266-0.145,0.477-0.145
				c0.083,0,0.164,0.012,0.243,0.035c0.098,0.022,0.182,0.034,0.254,0.034c0.177,0,0.317-0.026,0.419-0.079
				c0.101-0.052,0.193-0.143,0.274-0.274C237.392,484.083,237.486,483.891,237.591,483.639z"/>
		</g>
		<g>
			<path style="fill:#7D9BC1;" d="M259.936,477.309h0.368v-0.463c0-0.484,0.059-0.867,0.182-1.153
				c0.122-0.285,0.331-0.491,0.623-0.622c0.292-0.129,0.692-0.194,1.2-0.194c0.904,0,1.352,0.218,1.352,0.663
				c0,0.142-0.047,0.264-0.143,0.366c-0.092,0.1-0.204,0.152-0.332,0.152c-0.059,0-0.165-0.011-0.314-0.035
				c-0.141-0.02-0.269-0.033-0.371-0.033c-0.278,0-0.456,0.084-0.538,0.247c-0.076,0.164-0.116,0.398-0.116,0.705v0.367h0.376
				c0.59,0,0.881,0.177,0.881,0.533c0,0.249-0.076,0.411-0.233,0.479c-0.156,0.068-0.371,0.102-0.648,0.102h-0.376v4.087
				c0,0.304-0.072,0.536-0.22,0.695c-0.143,0.162-0.329,0.242-0.561,0.242c-0.218,0-0.399-0.08-0.546-0.242
				c-0.145-0.159-0.217-0.391-0.217-0.695v-4.087h-0.425c-0.231,0-0.406-0.05-0.531-0.156c-0.124-0.102-0.187-0.238-0.187-0.403
				C259.161,477.491,259.419,477.309,259.936,477.309"/>
			<path style="fill:#7D9BC1;" d="M264.986,481.219v1.29c0,0.311-0.079,0.547-0.223,0.702c-0.147,0.158-0.332,0.235-0.558,0.235
				c-0.227,0-0.409-0.078-0.551-0.238c-0.141-0.157-0.214-0.39-0.214-0.698v-4.297c0-0.694,0.25-1.04,0.75-1.04
				c0.258,0,0.442,0.08,0.555,0.243c0.113,0.163,0.175,0.401,0.189,0.719c0.183-0.318,0.371-0.556,0.564-0.719
				c0.198-0.163,0.454-0.243,0.779-0.243c0.327,0,0.638,0.08,0.943,0.243c0.307,0.163,0.459,0.379,0.459,0.645
				c0,0.187-0.066,0.345-0.194,0.465c-0.131,0.124-0.27,0.185-0.42,0.185c-0.059,0-0.197-0.037-0.412-0.107
				c-0.217-0.067-0.409-0.103-0.573-0.103c-0.226,0-0.412,0.061-0.554,0.177c-0.144,0.122-0.256,0.296-0.336,0.527
				c-0.077,0.235-0.13,0.515-0.162,0.835C264.999,480.363,264.986,480.756,264.986,481.219"/>
			<path style="fill:#7D9BC1;" d="M272.077,480.688h-3.018c0.005,0.35,0.074,0.66,0.211,0.927c0.14,0.266,0.321,0.468,0.55,0.605
				c0.229,0.135,0.478,0.202,0.755,0.202c0.185,0,0.353-0.02,0.505-0.066c0.151-0.041,0.3-0.11,0.443-0.203
				c0.144-0.091,0.274-0.189,0.395-0.297c0.12-0.104,0.278-0.247,0.47-0.428c0.08-0.067,0.193-0.103,0.338-0.103
				c0.16,0,0.286,0.044,0.386,0.132c0.099,0.088,0.145,0.209,0.145,0.367c0,0.14-0.053,0.302-0.159,0.487
				c-0.112,0.189-0.275,0.367-0.497,0.539c-0.222,0.17-0.499,0.314-0.831,0.425c-0.333,0.113-0.717,0.17-1.149,0.17
				c-0.994,0-1.763-0.281-2.312-0.846c-0.55-0.566-0.828-1.334-0.828-2.301c0-0.456,0.07-0.879,0.207-1.27
				c0.134-0.392,0.332-0.723,0.594-1.004c0.259-0.28,0.577-0.493,0.959-0.641c0.379-0.148,0.801-0.223,1.266-0.223
				c0.601,0,1.119,0.127,1.551,0.384c0.431,0.252,0.758,0.581,0.969,0.984c0.215,0.405,0.323,0.814,0.323,1.234
				c0,0.386-0.112,0.637-0.334,0.753C272.793,480.631,272.481,480.688,272.077,480.688 M269.059,479.811h2.797
				c-0.037-0.526-0.177-0.922-0.425-1.182c-0.249-0.263-0.57-0.393-0.976-0.393c-0.384,0-0.7,0.131-0.947,0.398
				C269.262,478.9,269.111,479.292,269.059,479.811"/>
			<path style="fill:#7D9BC1;" d="M278.494,480.688h-3.018c0.004,0.35,0.074,0.66,0.211,0.927c0.138,0.266,0.321,0.468,0.548,0.605
				c0.228,0.135,0.479,0.202,0.756,0.202c0.183,0,0.353-0.02,0.503-0.066c0.154-0.041,0.301-0.11,0.446-0.203
				c0.144-0.091,0.274-0.189,0.395-0.297c0.118-0.104,0.276-0.247,0.469-0.428c0.08-0.067,0.194-0.103,0.338-0.103
				c0.16,0,0.288,0.044,0.387,0.132c0.098,0.088,0.143,0.209,0.143,0.367c0,0.14-0.052,0.302-0.163,0.487
				c-0.105,0.189-0.271,0.367-0.494,0.539c-0.22,0.17-0.5,0.314-0.83,0.425c-0.332,0.113-0.719,0.17-1.151,0.17
				c-0.992,0-1.76-0.281-2.312-0.846c-0.55-0.566-0.826-1.334-0.826-2.301c0-0.456,0.069-0.879,0.207-1.27
				c0.135-0.392,0.332-0.723,0.593-1.004c0.259-0.28,0.578-0.493,0.96-0.641c0.379-0.148,0.803-0.223,1.266-0.223
				c0.6,0,1.117,0.127,1.555,0.384c0.428,0.252,0.753,0.581,0.964,0.984c0.214,0.405,0.324,0.814,0.324,1.234
				c0,0.386-0.114,0.637-0.334,0.753C279.208,480.631,278.896,480.688,278.494,480.688 M275.477,479.811h2.797
				c-0.038-0.526-0.181-0.922-0.425-1.182c-0.25-0.263-0.572-0.393-0.977-0.393c-0.384,0-0.699,0.131-0.948,0.398
				C275.677,478.9,275.526,479.292,275.477,479.811"/>
			<path style="fill:#7D9BC1;" d="M281.873,478.04v0.185c0.289-0.357,0.591-0.62,0.907-0.788c0.309-0.169,0.665-0.254,1.06-0.254
				c0.473,0,0.913,0.124,1.313,0.367c0.399,0.246,0.713,0.604,0.945,1.075c0.232,0.473,0.349,1.029,0.349,1.674
				c0,0.474-0.067,0.911-0.2,1.309c-0.133,0.397-0.319,0.73-0.552,0.999c-0.234,0.268-0.509,0.477-0.827,0.622
				c-0.322,0.143-0.661,0.216-1.028,0.216c-0.439,0-0.811-0.088-1.11-0.266c-0.299-0.174-0.584-0.436-0.857-0.777v2.316
				c0,0.676-0.247,1.017-0.74,1.017c-0.292,0-0.481-0.087-0.578-0.261c-0.09-0.178-0.139-0.431-0.139-0.768v-6.659
				c0-0.294,0.063-0.511,0.19-0.659c0.128-0.142,0.304-0.217,0.526-0.217c0.22,0,0.396,0.074,0.533,0.223
				C281.806,477.546,281.873,477.758,281.873,478.04 M284.897,480.281c0-0.407-0.063-0.758-0.187-1.049
				c-0.124-0.293-0.297-0.516-0.515-0.671c-0.219-0.156-0.465-0.236-0.733-0.236c-0.425,0-0.784,0.169-1.076,0.502
				c-0.293,0.337-0.44,0.83-0.44,1.483c0,0.611,0.145,1.09,0.437,1.431c0.29,0.341,0.646,0.511,1.078,0.511
				c0.255,0,0.494-0.075,0.712-0.221c0.221-0.15,0.396-0.373,0.526-0.67C284.831,481.062,284.897,480.702,284.897,480.281"/>
			<path style="fill:#7D9BC1;" d="M288,476.454c-0.216,0-0.398-0.068-0.549-0.199c-0.154-0.133-0.23-0.317-0.23-0.557
				c0-0.219,0.078-0.399,0.236-0.541c0.156-0.139,0.337-0.211,0.544-0.211c0.202,0,0.378,0.063,0.532,0.19
				c0.155,0.13,0.232,0.318,0.232,0.563c0,0.238-0.076,0.423-0.225,0.556C288.388,476.386,288.209,476.454,288,476.454
				 M288.764,478.047v4.463c0,0.307-0.074,0.54-0.22,0.697c-0.149,0.16-0.333,0.238-0.56,0.238c-0.227,0-0.407-0.08-0.552-0.242
				c-0.139-0.164-0.211-0.396-0.211-0.694v-4.418c0-0.303,0.073-0.532,0.211-0.687c0.145-0.157,0.325-0.233,0.552-0.233
				c0.227,0,0.411,0.076,0.56,0.233C288.69,477.559,288.764,477.775,288.764,478.047"/>
			<path style="fill:#7D9BC1;" d="M293.737,482.741l-1.359-2.24l-0.838,0.79v1.229c0,0.297-0.079,0.525-0.236,0.684
				c-0.153,0.162-0.337,0.242-0.539,0.242c-0.237,0-0.425-0.078-0.559-0.238c-0.135-0.157-0.204-0.39-0.204-0.698v-6.581
				c0-0.341,0.068-0.601,0.197-0.781c0.132-0.181,0.324-0.269,0.567-0.269c0.238,0,0.424,0.081,0.565,0.245
				c0.139,0.161,0.21,0.401,0.21,0.715v3.743l1.735-1.822c0.215-0.224,0.376-0.381,0.492-0.463c0.113-0.082,0.249-0.124,0.41-0.124
				c0.194,0,0.353,0.062,0.485,0.184c0.125,0.122,0.19,0.277,0.19,0.46c0,0.225-0.21,0.529-0.627,0.905l-0.819,0.751l1.582,2.488
				c0.115,0.187,0.202,0.324,0.252,0.42c0.05,0.095,0.077,0.19,0.077,0.275c0,0.246-0.068,0.437-0.203,0.58
				c-0.134,0.141-0.311,0.21-0.527,0.21c-0.188,0-0.335-0.048-0.436-0.152C294.05,483.19,293.909,483.006,293.737,482.741"/>
			<path style="fill:#7D9BC1;" d="M297.089,483.445c-0.233,0-0.433-0.075-0.603-0.227c-0.169-0.148-0.255-0.36-0.255-0.633
				c0-0.229,0.082-0.427,0.244-0.592c0.163-0.166,0.361-0.249,0.6-0.249c0.236,0,0.437,0.083,0.608,0.245
				c0.166,0.164,0.251,0.364,0.251,0.596c0,0.269-0.085,0.48-0.251,0.63C297.512,483.371,297.315,483.445,297.089,483.445"/>
			<path style="fill:#7D9BC1;" d="M304.762,481.536c0,0.191-0.057,0.397-0.173,0.615c-0.114,0.22-0.29,0.427-0.527,0.625
				c-0.235,0.198-0.53,0.358-0.889,0.478c-0.357,0.12-0.762,0.182-1.208,0.182c-0.956,0-1.7-0.279-2.235-0.834
				c-0.533-0.557-0.801-1.303-0.801-2.237c0-0.635,0.121-1.193,0.368-1.68c0.242-0.485,0.597-0.861,1.06-1.127
				c0.464-0.267,1.021-0.398,1.662-0.398c0.401,0,0.766,0.058,1.102,0.176c0.333,0.116,0.614,0.268,0.848,0.451
				c0.23,0.187,0.408,0.383,0.529,0.59c0.123,0.209,0.183,0.405,0.183,0.587c0,0.183-0.067,0.34-0.204,0.468
				c-0.14,0.128-0.307,0.193-0.499,0.193c-0.13,0-0.237-0.034-0.322-0.099c-0.085-0.067-0.181-0.172-0.285-0.322
				c-0.189-0.285-0.385-0.501-0.592-0.642c-0.204-0.145-0.464-0.215-0.781-0.215c-0.453,0-0.823,0.177-1.103,0.534
				c-0.278,0.354-0.418,0.845-0.418,1.46c0,0.29,0.037,0.559,0.109,0.802c0.07,0.242,0.173,0.45,0.31,0.621
				c0.137,0.171,0.3,0.3,0.491,0.389c0.193,0.091,0.405,0.134,0.633,0.134c0.31,0,0.575-0.071,0.795-0.214
				c0.224-0.143,0.418-0.361,0.587-0.656c0.094-0.173,0.195-0.308,0.303-0.407c0.109-0.097,0.243-0.148,0.402-0.148
				c0.188,0,0.345,0.073,0.468,0.215C304.699,481.221,304.762,481.375,304.762,481.536"/>
			<path style="fill:#7D9BC1;" d="M311.419,480.31c0,0.458-0.073,0.883-0.212,1.272c-0.147,0.388-0.352,0.721-0.624,0.999
				c-0.271,0.279-0.596,0.493-0.971,0.643c-0.38,0.147-0.803,0.223-1.272,0.223c-0.467,0-0.888-0.076-1.262-0.228
				c-0.371-0.148-0.697-0.365-0.967-0.644c-0.274-0.284-0.481-0.615-0.626-0.997c-0.136-0.383-0.209-0.806-0.209-1.267
				c0-0.468,0.074-0.896,0.213-1.284c0.144-0.389,0.35-0.721,0.618-0.995c0.268-0.275,0.591-0.486,0.97-0.637
				c0.383-0.148,0.803-0.223,1.262-0.223c0.466,0,0.891,0.074,1.272,0.227c0.379,0.149,0.703,0.365,0.978,0.642
				c0.272,0.282,0.478,0.612,0.619,0.995C311.348,479.423,311.419,479.845,311.419,480.31 M309.87,480.31
				c0-0.63-0.139-1.119-0.415-1.469c-0.275-0.354-0.648-0.528-1.115-0.528c-0.302,0-0.568,0.078-0.799,0.234
				c-0.23,0.156-0.405,0.386-0.529,0.693c-0.124,0.305-0.188,0.662-0.188,1.07c0,0.404,0.061,0.754,0.184,1.055
				c0.124,0.304,0.299,0.534,0.527,0.694c0.23,0.159,0.497,0.241,0.805,0.241c0.466,0,0.84-0.176,1.115-0.53
				C309.731,481.417,309.87,480.929,309.87,480.31"/>
			<path style="fill:#7D9BC1;" d="M317.303,480.423v2.05c0,0.325-0.072,0.566-0.22,0.73c-0.149,0.162-0.34,0.243-0.581,0.243
				c-0.234,0-0.425-0.081-0.566-0.243c-0.147-0.164-0.221-0.405-0.221-0.73v-2.457c0-0.389-0.012-0.691-0.038-0.907
				c-0.027-0.21-0.1-0.39-0.216-0.525c-0.117-0.14-0.303-0.209-0.554-0.209c-0.506,0-0.837,0.173-0.997,0.524
				c-0.159,0.343-0.242,0.841-0.242,1.491v2.083c0,0.32-0.073,0.563-0.215,0.728c-0.148,0.163-0.338,0.245-0.574,0.245
				c-0.235,0-0.426-0.082-0.575-0.245c-0.15-0.165-0.224-0.408-0.224-0.728v-4.413c0-0.291,0.066-0.512,0.199-0.661
				c0.137-0.153,0.313-0.227,0.529-0.227c0.212,0,0.388,0.073,0.53,0.211c0.141,0.142,0.211,0.337,0.211,0.586v0.146
				c0.27-0.318,0.556-0.554,0.859-0.702c0.307-0.155,0.644-0.229,1.019-0.229c0.387,0,0.72,0.078,0.998,0.232
				c0.279,0.155,0.508,0.39,0.69,0.7c0.261-0.314,0.541-0.549,0.839-0.702c0.297-0.153,0.626-0.229,0.989-0.229
				c0.42,0,0.786,0.085,1.091,0.249c0.303,0.165,0.531,0.404,0.683,0.711c0.131,0.281,0.196,0.72,0.196,1.319v3.012
				c0,0.325-0.073,0.566-0.218,0.73c-0.146,0.162-0.342,0.243-0.583,0.243c-0.235,0-0.425-0.082-0.574-0.245
				c-0.149-0.165-0.224-0.408-0.224-0.728v-2.594c0-0.332-0.014-0.597-0.041-0.796c-0.028-0.201-0.105-0.369-0.228-0.504
				c-0.126-0.135-0.315-0.204-0.567-0.204c-0.203,0-0.396,0.063-0.579,0.183c-0.182,0.118-0.325,0.284-0.429,0.483
				C317.362,479.302,317.303,479.763,317.303,480.423"/>
		</g>
		<g>
			<path style="fill:#7D9BC1;" d="M245.5,479.937c-0.001-0.003-0.001-0.006-0.001-0.011
				C245.499,479.931,245.499,479.934,245.5,479.937z"/>
			<path style="fill:#7D9BC1;" d="M245.578,480.43c0.001,0,0.001,0,0.001,0c-0.029-0.141-0.052-0.28-0.07-0.418
				C245.527,480.151,245.55,480.291,245.578,480.43z"/>
			<path style="fill:#7D9BC1;" d="M246.088,481.861c-0.003-0.006-0.006-0.013-0.01-0.02
				C246.082,481.848,246.085,481.855,246.088,481.861z"/>
			<path style="fill:#7D9BC1;" d="M246.039,481.766c-0.013-0.026-0.026-0.053-0.039-0.08
				C246.013,481.714,246.026,481.74,246.039,481.766z"/>
			<path style="fill:#7D9BC1;" d="M245.721,480.981c0.076,0.238,0.167,0.469,0.272,0.689c-0.107-0.225-0.196-0.456-0.27-0.689
				C245.723,480.981,245.722,480.981,245.721,480.981z"/>
			<path style="fill:#7D9BC1;" d="M251.471,474.026c0.298,0,0.518,0.024,0.77,0.066l0.071-0.454c0,0-0.697-0.214-1.612-0.139
				l-0.072-0.247c0.285-0.06,0.499-0.313,0.499-0.615c0-0.346-0.282-0.627-0.629-0.627c-0.347,0-0.628,0.281-0.628,0.627
				c0,0.302,0.213,0.555,0.497,0.615l0.08,0.275c-0.972,0.134-1.746,0.513-1.746,0.513l0.137,0.419
				c0.588-0.196,1.098-0.315,1.561-0.365C250.852,474.047,251.193,474.026,251.471,474.026z"/>
			<path style="fill:#7D9BC1;" d="M246.077,476.321l0.003-0.005c0.023-0.03,0.045-0.058,0.067-0.085l-0.186-0.134l-0.29-0.212
				c-0.016,0.023-0.473,0.443-0.834,1.218c-0.015-0.024-0.033-0.048-0.053-0.071c-0.108-0.118-0.259-0.178-0.451-0.175
				c-0.002,0-0.006,0-0.009,0c-0.119,0-0.2-0.039-0.254-0.088c0.053-0.067,0.085-0.152,0.085-0.246c0-0.219-0.178-0.398-0.398-0.398
				c-0.219,0-0.398,0.179-0.398,0.398c0,0.22,0.178,0.398,0.398,0.398c0.035,0,0.067-0.006,0.099-0.012
				c0.098,0.109,0.253,0.203,0.48,0.199c0.117-0.001,0.203,0.029,0.26,0.092c0.066,0.072,0.088,0.176,0.095,0.255
				c-0.001,0.001-0.001,0.003-0.002,0.003c-0.259,0.708-0.185,1.588-0.185,1.588l0.629,0.025c0.013-0.321,0.059-0.882,0.221-1.327
				C245.669,476.883,246.061,476.344,246.077,476.321z"/>
			<path style="fill:#7D9BC1;" d="M256.943,474.551c-0.219,0-0.398,0.178-0.398,0.398c0,0.034,0.005,0.067,0.014,0.098
				c-0.109,0.099-0.204,0.255-0.2,0.482c0.002,0.117-0.029,0.202-0.092,0.26c-0.051,0.045-0.114,0.069-0.176,0.084
				c-0.468-0.656-1.045-1.056-1.045-1.056l-0.451,0.484c0.341,0.31,0.689,0.699,1.028,1.184c0.234,0.335,0.475,0.767,0.676,1.198
				l0.609-0.289c0,0-0.278-0.687-0.67-1.304c0.068-0.024,0.137-0.061,0.197-0.115c0.119-0.107,0.178-0.26,0.174-0.451
				c-0.001-0.124,0.04-0.207,0.088-0.262c0.068,0.052,0.153,0.085,0.245,0.085c0.221,0,0.398-0.178,0.398-0.398
				C257.342,474.729,257.164,474.551,256.943,474.551z"/>
			<path style="fill:#7D9BC1;" d="M255.362,480.026c-0.838,0.408-2.218,0.948-4.034,1.201c-0.713,0.099-1.403,0.135-2.039,0.135
				c-0.827,0-1.558-0.062-2.119-0.133c-0.64-0.081-1.141-0.18-1.447-0.249c0.074,0.233,0.163,0.464,0.27,0.689
				c0.002,0.006,0.005,0.012,0.008,0.016c0.013,0.026,0.025,0.053,0.039,0.08c0.013,0.026,0.026,0.052,0.039,0.076
				c0.004,0.007,0.007,0.014,0.01,0.02c0.18,0.339,0.396,0.651,0.643,0.921c0.856,0.937,1.729,1.085,1.738,1.086l0.014,0.002
				l0.013,0.005c0.008,0.003,0.782,0.253,1.958,0.253c1.157,0,2.293-0.234,3.375-0.694c0.802-0.41,1.56-1.033,1.936-1.588
				c0.29-0.43,0.5-0.888,0.625-1.365c0.066-0.253,0.118-0.659,0.088-1.086C256.24,479.554,255.867,479.78,255.362,480.026z"/>
			<path style="fill:#7D9BC1;" d="M246.346,476.52c-0.024,0.036-0.388,0.55-0.675,1.34c-0.215,0.592-0.206,1.453-0.206,1.463v0.002
				c0,0.202,0.011,0.403,0.034,0.601c0,0.005,0,0.008,0.001,0.011c0.002,0.026,0.007,0.05,0.009,0.075
				c0.018,0.138,0.041,0.277,0.071,0.418c0.417,0.106,2.902,0.685,5.68,0.299c1.741-0.242,3.063-0.757,3.866-1.146
				c0.667-0.324,1.096-0.616,1.261-0.737c-0.165-0.612-0.62-1.571-1.037-2.169c-1.193-1.705-2.479-2.142-3.139-2.251
				c-0.252-0.041-0.454-0.065-0.74-0.065c-0.266,0-0.596,0.021-1.037,0.068c-0.442,0.046-0.935,0.162-1.506,0.354
				c-0.802,0.268-1.527,0.69-2.098,1.218l-0.019,0.018C246.725,476.097,246.549,476.261,246.346,476.52z M253.645,476.123
				c0.572,0,1.037,0.465,1.037,1.037c0,0.572-0.465,1.038-1.037,1.038c-0.572,0-1.036-0.465-1.036-1.038
				C252.608,476.587,253.072,476.123,253.645,476.123z M248.742,476.082c0.926,0,1.676,0.75,1.676,1.676
				c0,0.926-0.75,1.674-1.676,1.674c-0.925,0-1.675-0.749-1.675-1.674C247.067,476.832,247.817,476.082,248.742,476.082z"/>
		</g>
	</g>
</g>
</svg>
